<?xml version="1.0" encoding="iso-8859-1"?>
<!-- Generator: Adobe Illustrator 19.0.0, SVG Export Plug-In . SVG Version: 6.00 Build 0)  -->
<svg version="1.1" id="Layer_1" xmlns="http://www.w3.org/2000/svg" xmlns:xlink="http://www.w3.org/1999/xlink" x="0px" y="0px"
	 viewBox="0 0 512 512" style="enable-background:new 0 0 512 512;" xml:space="preserve">
<path style="fill:#EFF2FA;" d="M167.724,35.31H26.483C11.857,35.31,0,47.167,0,61.793v176.552c0,14.626,11.857,26.483,26.483,26.483
	h41.195l20.276,30.413c4.353,6.529,13.946,6.529,18.3,0l20.276-30.413h41.195c14.626,0,26.483-11.857,26.483-26.483V61.793
	C194.207,47.167,182.35,35.31,167.724,35.31z"/>
<path style="fill:#FFE182;" d="M167.724,247.172H26.483c-4.875,0-8.828-3.953-8.828-8.828V61.793c0-4.875,3.953-8.828,8.828-8.828
	h141.241c4.875,0,8.828,3.953,8.828,8.828v176.552C176.552,243.22,172.599,247.172,167.724,247.172z"/>
<g>
	<path style="fill:#FFFFFF;" d="M141.241,229.517H52.966c-4.875,0-8.828-3.953-8.828-8.828v-8.828
		c0-29.252,23.713-52.966,52.966-52.966l0,0c29.252,0,52.966,23.713,52.966,52.966v8.828
		C150.069,225.565,146.116,229.517,141.241,229.517z"/>
	<circle style="fill:#FFFFFF;" cx="97.103" cy="105.931" r="35.31"/>
</g>
<g>
	<path style="fill:#FFF0DC;" d="M70.621,222.161v-19.126c0-21.482,15.36-39.338,35.688-43.286c-2.995-0.526-6.059-0.852-9.205-0.852
		c-29.252,0-52.966,23.713-52.966,52.966v8.828c0,4.875,3.953,8.828,8.828,8.828h25.012
		C73.914,229.517,70.621,226.223,70.621,222.161z"/>
	<path style="fill:#FFF0DC;" d="M88.276,105.931c0-15.971,8.003-29.308,18.916-33.671c-3.217-0.964-6.558-1.64-10.089-1.64
		c-19.501,0-35.31,15.809-35.31,35.31s15.809,35.31,35.31,35.31c3.531,0,6.872-0.675,10.089-1.64
		C96.279,135.239,88.276,121.901,88.276,105.931z"/>
</g>
<path style="fill:#EFF2FA;" d="M485.517,35.31H344.276c-14.626,0-26.483,11.857-26.483,26.483v176.552
	c0,14.626,11.857,26.483,26.483,26.483h41.195l20.276,30.413c4.353,6.529,13.947,6.529,18.3,0l20.276-30.413h41.195
	c14.626,0,26.483-11.857,26.483-26.483V61.793C512,47.167,500.143,35.31,485.517,35.31z"/>
<path style="fill:#C3E678;" d="M485.517,247.172H344.276c-4.875,0-8.828-3.953-8.828-8.828V61.793c0-4.875,3.953-8.828,8.828-8.828
	h141.241c4.875,0,8.828,3.953,8.828,8.828v176.552C494.345,243.22,490.392,247.172,485.517,247.172z"/>
<g>
	<path style="fill:#FFFFFF;" d="M459.034,229.517h-88.276c-4.875,0-8.828-3.953-8.828-8.828v-8.828
		c0-29.252,23.713-52.966,52.966-52.966l0,0c29.252,0,52.966,23.713,52.966,52.966v8.828
		C467.862,225.565,463.91,229.517,459.034,229.517z"/>
	<circle style="fill:#FFFFFF;" cx="414.897" cy="105.931" r="35.31"/>
</g>
<g>
	<path style="fill:#FFF0DC;" d="M388.414,222.161v-19.126c0-21.482,15.36-39.338,35.688-43.286
		c-2.995-0.526-6.059-0.852-9.205-0.852c-29.252,0-52.966,23.713-52.966,52.966v8.828c0,4.875,3.953,8.828,8.828,8.828h25.012
		C391.708,229.517,388.414,226.223,388.414,222.161z"/>
	<path style="fill:#FFF0DC;" d="M406.069,105.931c0-15.971,8.003-29.308,18.916-33.671c-3.217-0.964-6.558-1.64-10.089-1.64
		c-19.501,0-35.31,15.809-35.31,35.31s15.809,35.31,35.31,35.31c3.531,0,6.872-0.675,10.089-1.64
		C414.072,135.239,406.069,121.901,406.069,105.931z"/>
</g>
<path style="fill:#D7DEED;" d="M494.345,423.724H17.655C7.904,423.724,0,431.628,0,441.379v17.655
	c0,9.751,7.904,17.655,17.655,17.655h476.69c9.751,0,17.655-7.904,17.655-17.655v-17.655
	C512,431.628,504.096,423.724,494.345,423.724z"/>
<circle style="fill:#FF6464;" cx="26.483" cy="450.207" r="8.828"/>
<circle style="fill:#FFE182;" cx="52.966" cy="450.207" r="8.828"/>
<circle style="fill:#A5D76E;" cx="79.448" cy="450.207" r="8.828"/>
<g>
	<path style="fill:#EFF2FA;" d="M123.586,459.034h-8.828c-4.875,0-8.828-3.953-8.828-8.828l0,0c0-4.875,3.953-8.828,8.828-8.828
		h8.828c4.875,0,8.828,3.953,8.828,8.828l0,0C132.414,455.082,128.461,459.034,123.586,459.034z"/>
	<path style="fill:#EFF2FA;" d="M158.897,459.034h-8.828c-4.875,0-8.828-3.953-8.828-8.828l0,0c0-4.875,3.953-8.828,8.828-8.828
		h8.828c4.875,0,8.828,3.953,8.828,8.828l0,0C167.724,455.082,163.772,459.034,158.897,459.034z"/>
	<path style="fill:#EFF2FA;" d="M450.207,459.034h-8.828c-4.875,0-8.828-3.953-8.828-8.828l0,0c0-4.875,3.953-8.828,8.828-8.828
		h8.828c4.875,0,8.828,3.953,8.828,8.828l0,0C459.034,455.082,455.082,459.034,450.207,459.034z"/>
	<path style="fill:#EFF2FA;" d="M485.517,459.034h-8.828c-4.875,0-8.828-3.953-8.828-8.828l0,0c0-4.875,3.953-8.828,8.828-8.828
		h8.828c4.875,0,8.828,3.953,8.828,8.828l0,0C494.345,455.082,490.392,459.034,485.517,459.034z"/>
	<path style="fill:#EFF2FA;" d="M406.069,459.034H194.207c-4.875,0-8.828-3.953-8.828-8.828l0,0c0-4.875,3.953-8.828,8.828-8.828
		h211.862c4.875,0,8.828,3.953,8.828,8.828l0,0C414.897,455.082,410.944,459.034,406.069,459.034z"/>
</g>
<path style="fill:#D7DEED;" d="M326.621,141.241H185.379c-14.626,0-26.483,11.857-26.483,26.483v176.552
	c0,14.626,11.857,26.483,26.483,26.483h41.195l20.276,30.413c4.353,6.529,13.946,6.529,18.3,0l20.276-30.413h41.195
	c14.626,0,26.483-11.857,26.483-26.483V167.724C353.103,153.098,341.247,141.241,326.621,141.241z"/>
<path style="fill:#FF6464;" d="M326.621,353.103H185.379c-4.875,0-8.828-3.953-8.828-8.828V167.724c0-4.875,3.953-8.828,8.828-8.828
	h141.241c4.875,0,8.828,3.953,8.828,8.828v176.552C335.448,349.151,331.496,353.103,326.621,353.103z"/>
<g>
	<path style="fill:#FFFFFF;" d="M300.138,335.448h-88.276c-4.875,0-8.828-3.953-8.828-8.828v-8.828
		c0-29.252,23.713-52.966,52.966-52.966l0,0c29.252,0,52.966,23.713,52.966,52.966v8.828
		C308.966,331.496,305.013,335.448,300.138,335.448z"/>
	<circle style="fill:#FFFFFF;" cx="256" cy="211.862" r="35.31"/>
</g>
<g>
	<path style="fill:#FFF0DC;" d="M229.517,328.092v-19.126c0-21.482,15.36-39.338,35.688-43.286
		c-2.995-0.526-6.059-0.852-9.205-0.852c-29.252,0-52.966,23.713-52.966,52.966v8.828c0,4.875,3.953,8.828,8.828,8.828h25.012
		C232.811,335.448,229.517,332.155,229.517,328.092z"/>
	<path style="fill:#FFF0DC;" d="M247.172,211.862c0-15.971,8.003-29.308,18.916-33.671c-3.217-0.964-6.558-1.64-10.089-1.64
		c-19.501,0-35.31,15.809-35.31,35.31s15.809,35.31,35.31,35.31c3.531,0,6.872-0.675,10.089-1.64
		C255.176,241.17,247.172,227.832,247.172,211.862z"/>
</g>
<g>
</g>
<g>
</g>
<g>
</g>
<g>
</g>
<g>
</g>
<g>
</g>
<g>
</g>
<g>
</g>
<g>
</g>
<g>
</g>
<g>
</g>
<g>
</g>
<g>
</g>
<g>
</g>
<g>
</g>
</svg>
